<!DOCTYPE svg PUBLIC "-//W3C//DTD SVG 20010904//EN" "http://www.w3.org/TR/2001/REC-SVG-20010904/DTD/svg10.dtd">
<svg version="1.0" xmlns="http://www.w3.org/2000/svg" width="110px" height="94px" viewBox="0 0 1100 940" preserveAspectRatio="xMidYMid meet">
<g id="layer101" fill="#d3012b" stroke="none">
 <path d="M0 470 l0 -470 550 0 550 0 0 470 0 470 -550 0 -550 0 0 -470z"/>
 </g>
<g id="layer102" fill="#ffffff" stroke="none">
 <path d="M0 470 l0 -470 550 0 550 0 0 470 0 470 -550 0 -550 0 0 -470z m440 273 c24 -30 53 -123 48 -154 -3 -21 -4 -20 -32 7 -32 32 -82 131 -92 183 l-7 35 31 -23 c17 -12 40 -34 52 -48z m405 35 c-18 -82 -107 -230 -126 -211 -12 12 6 92 32 145 15 29 83 98 97 98 2 0 0 -15 -3 -32z m-504 -158 c97 -117 137 -186 154 -267 19 -87 20 -213 3 -213 -7 0 -37 14 -65 30 -62 35 -121 106 -170 204 -33 65 -34 72 -23 110 19 63 12 168 -17 242 -13 35 42 -15 118 -106z m633 83 c-5 -16 -9 -89 -9 -163 -1 -149 -2 -154 -78 -262 -41 -59 -78 -93 -134 -122 -56 -28 -57 -26 -49 91 3 60 11 125 17 146 13 47 111 193 184 275 62 68 82 78 69 35z"/>
 </g>

</svg>